<?xml version="1.0" standalone="no"?>
<!DOCTYPE svg PUBLIC "-//W3C//DTD SVG 20010904//EN"
 "http://www.w3.org/TR/2001/REC-SVG-20010904/DTD/svg10.dtd">
<svg version="1.0" xmlns="http://www.w3.org/2000/svg"
 width="260.000000pt" height="260.000000pt" viewBox="0 0 260.000000 260.000000"
 preserveAspectRatio="xMidYMid meet">
<metadata>
Created by potrace 1.14, written by Peter Selinger 2001-2017
</metadata>
<g transform="translate(0.000000,260.000000) scale(0.100000,-0.100000)"
fill="#000000" stroke="none">
<path d="M1065 2325 c-61 -18 -99 -41 -132 -78 -26 -30 -36 -35 -73 -34 -36 1
-46 5 -59 29 -26 45 -54 51 -246 46 -210 -4 -214 -6 -224 -110 -1 -3 -27 -21
-58 -39 -76 -43 -170 -139 -209 -214 -68 -129 -66 -107 -62 -712 l3 -548 36
-75 c20 -41 50 -94 68 -117 39 -54 131 -127 196 -157 116 -53 68 -51 990 -51
824 0 863 1 920 19 123 40 201 97 296 214 6 7 27 48 47 90 l37 77 0 570 0 570
-44 90 c-72 147 -186 245 -345 295 -50 16 -90 18 -322 21 l-191 2 -26 33 c-15
18 -52 45 -84 61 -58 28 -59 28 -268 29 -139 1 -224 -3 -250 -11z m632 -285
c235 -1 419 -6 440 -12 115 -30 212 -110 261 -216 l27 -57 0 -520 0 -520 -27
-57 c-31 -67 -94 -138 -151 -171 -95 -56 -76 -55 -952 -55 -749 0 -813 2 -860
18 -107 37 -183 106 -233 210 l-27 55 0 520 0 520 26 56 c47 101 128 172 233
209 40 13 90 18 226 19 96 1 176 3 177 4 1 1 104 1 230 0 125 -1 409 -3 630
-3z"/>
<path d="M460 1973 c-127 -32 -209 -131 -229 -273 -4 -36 -7 -72 -5 -80 1 -8
3 -22 3 -30 1 -13 26 -15 169 -14 163 0 192 4 192 25 0 22 85 133 149 197 63
62 195 150 249 167 12 3 22 10 22 14 0 13 -496 8 -550 -6z"/>
<path d="M1590 1981 c0 -5 20 -16 44 -25 120 -46 304 -213 366 -333 12 -24 29
-44 39 -44 69 -6 309 -4 322 2 20 10 17 106 -5 183 -28 97 -114 181 -210 207
-47 13 -556 21 -556 10z"/>
<path d="M1124 1925 c-227 -61 -388 -193 -484 -397 -184 -393 40 -867 465
-984 71 -19 242 -26 312 -12 265 53 464 211 558 445 13 32 26 72 29 88 3 17 9
50 14 75 33 188 -46 431 -190 580 -104 108 -197 165 -334 205 -112 33 -249 33
-370 0z m345 -174 c202 -61 358 -257 377 -472 22 -243 -133 -474 -370 -554
-265 -89 -552 30 -670 280 -44 92 -57 151 -55 242 4 144 71 288 179 386 143
129 351 175 539 118z"/>
<path d="M1225 1685 c-5 -1 -36 -10 -67 -20 -225 -66 -363 -315 -303 -545 54
-206 245 -343 465 -334 280 11 481 258 431 529 -31 168 -170 318 -332 359 -57
14 -165 20 -194 11z m245 -80 c19 -9 45 -31 58 -49 70 -102 -113 -150 -208
-55 -84 85 25 160 150 104z m-219 -711 c54 -30 79 -57 65 -71 -4 -4 -34 -7
-65 -7 -63 2 -136 29 -171 64 -58 58 71 68 171 14z"/>
<path d="M2139 701 c-69 -70 3 -176 96 -141 38 15 54 38 54 80 0 83 -91 120
-150 61z"/>
</g>
</svg>
